<?xml version="1.0" encoding="UTF-8" standalone="no"?>
<svg
   xmlns:dc="http://purl.org/dc/elements/1.1/"
   xmlns:cc="http://creativecommons.org/ns#"
   xmlns:rdf="http://www.w3.org/1999/02/22-rdf-syntax-ns#"
   xmlns:svg="http://www.w3.org/2000/svg"
   xmlns="http://www.w3.org/2000/svg"
   xmlns:sodipodi="http://sodipodi.sourceforge.net/DTD/sodipodi-0.dtd"
   xmlns:inkscape="http://www.inkscape.org/namespaces/inkscape"
   version="1.1"
   x="0px"
   y="0px"
   viewBox="0 0 249.61499 71.353973"
   xml:space="preserve"
   id="svg3729"
   sodipodi:docname="logo_named.svg"
   width="249.61499"
   height="71.353973"
   inkscape:version="0.92.4 (5da689c313, 2019-01-14)"><metadata
     id="metadata3735"><rdf:RDF><cc:Work
         rdf:about=""><dc:format>image/svg+xml</dc:format><dc:type
           rdf:resource="http://purl.org/dc/dcmitype/StillImage" /><dc:title></dc:title></cc:Work></rdf:RDF></metadata><defs
     id="defs3733" /><sodipodi:namedview
     pagecolor="#ffffff"
     bordercolor="#666666"
     borderopacity="1"
     objecttolerance="10"
     gridtolerance="10"
     guidetolerance="10"
     inkscape:pageopacity="0"
     inkscape:pageshadow="2"
     inkscape:window-width="2720"
     inkscape:window-height="1171"
     id="namedview3731"
     showgrid="false"
     fit-margin-top="0"
     fit-margin-left="0"
     fit-margin-right="0"
     fit-margin-bottom="0"
     inkscape:zoom="1.805"
     inkscape:cx="-106.99466"
     inkscape:cy="59.06735"
     inkscape:window-x="0"
     inkscape:window-y="0"
     inkscape:window-maximized="0"
     inkscape:current-layer="svg3729" /><style
     type="text/css"
     id="style3725">
	.st0{fill:#231815;}
</style><path
     d="M 0,70.499999 40.7,0 81.4,70.499999 Z m 35.9,-4 h 38.5 l -19.2,-33.4 z m -28.9999996,0 H 31.3 l 21.6,-37.4 L 40.7,7.9999994 Z"
     id="path3727"
     inkscape:connector-curvature="0" /><g
     aria-label="Lexicon"
     style="font-style:normal;font-weight:normal;font-size:37.33333206px;line-height:1.25;font-family:sans-serif;letter-spacing:0px;word-spacing:0px;fill:#000000;fill-opacity:1;stroke:none"
     id="text3739"><path
       d="M 108.62905,70.627411 H 86.550926 V 35.728973 h 4.640625 v 30.773438 h 17.437499 z"
       style="font-style:normal;font-variant:normal;font-weight:normal;font-stretch:normal;font-size:48px;line-height:1;font-family:sans-serif;-inkscape-font-specification:sans-serif;letter-spacing:-1.60000002px"
       id="path3756" /><path
       d="m 133.23218,57.994598 h -19.28907 q 0,2.414063 0.72657,4.21875 0.72656,1.78125 1.99218,2.929688 1.21875,1.125 2.88282,1.6875 1.6875,0.5625 3.70312,0.5625 2.67188,0 5.36719,-1.054688 2.71875,-1.078125 3.86719,-2.109375 h 0.23437 v 4.804688 q -2.22656,0.9375 -4.54687,1.570312 -2.32032,0.632813 -4.875,0.632813 -6.51563,0 -10.17188,-3.515625 -3.65625,-3.539063 -3.65625,-10.03125 0,-6.421875 3.49219,-10.195313 3.51562,-3.773437 9.23437,-3.773437 5.29688,0 8.15625,3.09375 2.88282,3.09375 2.88282,8.789062 z m -4.28907,-3.375 q -0.0234,-3.46875 -1.75781,-5.367187 -1.71094,-1.898438 -5.22656,-1.898438 -3.53906,0 -5.64844,2.085938 -2.08594,2.085937 -2.36719,5.179687 z"
       style="font-style:normal;font-variant:normal;font-weight:normal;font-stretch:normal;font-size:48px;line-height:1;font-family:sans-serif;-inkscape-font-specification:sans-serif;letter-spacing:-1.60000002px"
       id="path3758" /><path
       d="m 160.97593,70.627411 h -5.55469 l -7.42969,-10.054688 -7.47656,10.054688 h -5.13281 l 10.21875,-13.054688 -10.125,-13.125 h 5.55468 l 7.38282,9.890625 7.40625,-9.890625 h 5.15625 l -10.28907,12.890625 z"
       style="font-style:normal;font-variant:normal;font-weight:normal;font-stretch:normal;font-size:48px;line-height:1;font-family:sans-serif;-inkscape-font-specification:sans-serif;letter-spacing:-1.60000002px"
       id="path3760" /><path
       d="m 169.85249,40.064911 h -4.96875 v -4.570313 h 4.96875 z m -0.28125,30.5625 h -4.40625 V 44.447723 h 4.40625 z"
       style="font-style:normal;font-variant:normal;font-weight:normal;font-stretch:normal;font-size:48px;line-height:1;font-family:sans-serif;-inkscape-font-specification:sans-serif;letter-spacing:-1.60000002px"
       id="path3762" /><path
       d="m 196.09624,68.986786 q -2.20313,1.054687 -4.19532,1.640625 -1.96875,0.585937 -4.19531,0.585937 -2.83594,0 -5.20312,-0.820312 -2.36719,-0.84375 -4.05469,-2.53125 -1.71094,-1.6875 -2.64844,-4.265625 -0.9375,-2.578125 -0.9375,-6.023438 0,-6.421875 3.51563,-10.078125 3.53906,-3.65625 9.32812,-3.65625 2.25,0 4.40625,0.632813 2.17969,0.632812 3.98438,1.546875 v 4.898437 h -0.23438 q -2.01562,-1.570312 -4.17187,-2.414062 -2.13282,-0.84375 -4.17188,-0.84375 -3.75,0 -5.92969,2.53125 -2.15625,2.507812 -2.15625,7.382812 0,4.734375 2.10938,7.289063 2.13281,2.53125 5.97656,2.53125 1.33594,0 2.71875,-0.351563 1.38281,-0.351562 2.48438,-0.914062 0.96093,-0.492188 1.80468,-1.03125 0.84375,-0.5625 1.33594,-0.960938 h 0.23438 z"
       style="font-style:normal;font-variant:normal;font-weight:normal;font-stretch:normal;font-size:48px;line-height:1;font-family:sans-serif;-inkscape-font-specification:sans-serif;letter-spacing:-1.60000002px"
       id="path3764" /><path
       d="m 222.48061,57.549286 q 0,6.398437 -3.28125,10.101562 -3.28125,3.703125 -8.78906,3.703125 -5.55469,0 -8.83594,-3.703125 -3.25781,-3.703125 -3.25781,-10.101562 0,-6.398438 3.25781,-10.101563 3.28125,-3.726562 8.83594,-3.726562 5.50781,0 8.78906,3.726562 3.28125,3.703125 3.28125,10.101563 z m -4.54687,0 q 0,-5.085938 -1.99219,-7.546875 -1.99219,-2.484375 -5.53125,-2.484375 -3.58594,0 -5.57812,2.484375 -1.96875,2.460937 -1.96875,7.546875 0,4.921875 1.99218,7.476562 1.99219,2.53125 5.55469,2.53125 3.51563,0 5.50781,-2.507812 2.01563,-2.53125 2.01563,-7.5 z"
       style="font-style:normal;font-variant:normal;font-weight:normal;font-stretch:normal;font-size:48px;line-height:1;font-family:sans-serif;-inkscape-font-specification:sans-serif;letter-spacing:-1.60000002px"
       id="path3766" /><path
       d="m 249.61498,70.627411 h -4.40625 v -14.90625 q 0,-1.804688 -0.21093,-3.375 -0.21094,-1.59375 -0.77344,-2.484375 -0.58594,-0.984375 -1.6875,-1.453125 -1.10156,-0.492188 -2.85938,-0.492188 -1.80468,0 -3.77343,0.890625 -1.96875,0.890625 -3.77344,2.273438 v 19.546875 h -4.40625 V 44.447723 h 4.40625 v 2.90625 q 2.0625,-1.710937 4.26562,-2.671875 2.20313,-0.960937 4.52344,-0.960937 4.24219,0 6.46875,2.554687 2.22656,2.554688 2.22656,7.359375 z"
       style="font-style:normal;font-variant:normal;font-weight:normal;font-stretch:normal;font-size:48px;line-height:1;font-family:sans-serif;-inkscape-font-specification:sans-serif;letter-spacing:-1.60000002px"
       id="path3768" /></g></svg>