<?xml version="1.0" encoding="UTF-8" standalone="no"?>
<svg
   xmlns:dc="http://purl.org/dc/elements/1.1/"
   xmlns:cc="http://creativecommons.org/ns#"
   xmlns:rdf="http://www.w3.org/1999/02/22-rdf-syntax-ns#"
   xmlns:svg="http://www.w3.org/2000/svg"
   xmlns="http://www.w3.org/2000/svg"
   xmlns:sodipodi="http://sodipodi.sourceforge.net/DTD/sodipodi-0.dtd"
   xmlns:inkscape="http://www.inkscape.org/namespaces/inkscape"
   version="1.1"
   x="0px"
   y="0px"
   viewBox="0 0 239.50928 71.273246"
   xml:space="preserve"
   id="svg3729"
   sodipodi:docname="logo_named.svg"
   width="239.50928"
   height="71.273247"
   inkscape:version="0.92.4 (5da689c313, 2019-01-14)"><metadata
     id="metadata3735"><rdf:RDF><cc:Work
         rdf:about=""><dc:format>image/svg+xml</dc:format><dc:type
           rdf:resource="http://purl.org/dc/dcmitype/StillImage" /><dc:title></dc:title></cc:Work></rdf:RDF></metadata><defs
     id="defs3733" /><sodipodi:namedview
     pagecolor="#ffffff"
     bordercolor="#666666"
     borderopacity="1"
     objecttolerance="10"
     gridtolerance="10"
     guidetolerance="10"
     inkscape:pageopacity="0"
     inkscape:pageshadow="2"
     inkscape:window-width="2720"
     inkscape:window-height="1171"
     id="namedview3731"
     showgrid="false"
     fit-margin-top="0"
     fit-margin-left="0"
     fit-margin-right="0"
     fit-margin-bottom="0"
     inkscape:zoom="1.805"
     inkscape:cx="65.586363"
     inkscape:cy="58.467428"
     inkscape:window-x="0"
     inkscape:window-y="0"
     inkscape:window-maximized="0"
     inkscape:current-layer="svg3729" /><style
     type="text/css"
     id="style3725">
	.st0{fill:#231815;}
</style><path
     d="M 0,70.499999 40.7,0 81.4,70.499999 Z m 35.9,-4 h 38.5 l -19.2,-33.4 z m -28.9999996,0 H 31.3 l 21.6,-37.4 L 40.7,7.9999994 Z"
     id="path3727"
     inkscape:connector-curvature="0" /><g
     aria-label="Lexicon"
     style="font-style:normal;font-weight:normal;font-size:37.33333206px;line-height:1.25;font-family:sans-serif;letter-spacing:0px;word-spacing:0px;fill:#000000;fill-opacity:1;stroke:none"
     id="text3739"><path
       d="M 105.65509,70.627411 H 86.030093 V 39.606577 h 4.125 v 27.354167 h 15.499997 z"
       style="font-style:normal;font-variant:normal;font-weight:normal;font-stretch:normal;font-size:42.66666794px;font-family:sans-serif;-inkscape-font-specification:sans-serif"
       id="path3741" /><path
       d="m 128.94676,59.398244 h -17.14583 q 0,2.145833 0.64583,3.75 0.64583,1.583333 1.77083,2.604167 1.08334,1 2.5625,1.5 1.5,0.5 3.29167,0.5 2.375,0 4.77083,-0.9375 2.41667,-0.958334 3.4375,-1.875 h 0.20834 v 4.270833 q -1.97917,0.833334 -4.04167,1.395834 -2.0625,0.5625 -4.33333,0.5625 -5.79167,0 -9.04167,-3.125001 -3.25,-3.145833 -3.25,-8.916666 0,-5.708334 3.10417,-9.062501 3.125,-3.354166 8.20833,-3.354166 4.70833,0 7.25,2.75 2.5625,2.75 2.5625,7.8125 z m -3.8125,-3 q -0.0208,-3.083334 -1.5625,-4.770834 -1.52083,-1.6875 -4.64583,-1.6875 -3.14584,0 -5.02084,1.854167 -1.85416,1.854167 -2.10416,4.604167 z"
       style="font-style:normal;font-variant:normal;font-weight:normal;font-stretch:normal;font-size:42.66666794px;font-family:sans-serif;-inkscape-font-specification:sans-serif"
       id="path3743" /><path
       d="m 155.03009,70.627411 h -4.9375 l -6.60416,-8.9375 -6.64584,8.9375 h -4.5625 l 9.08334,-11.604167 -9,-11.666667 h 4.9375 l 6.5625,8.791667 6.58333,-8.791667 h 4.58333 l -9.14583,11.458334 z"
       style="font-style:normal;font-variant:normal;font-weight:normal;font-stretch:normal;font-size:42.66666794px;font-family:sans-serif;-inkscape-font-specification:sans-serif"
       id="path3745" /><path
       d="m 164.3426,43.460743 h -4.41667 v -4.0625 h 4.41667 z m -0.25,27.166668 h -3.91667 V 47.356577 h 3.91667 z"
       style="font-style:normal;font-variant:normal;font-weight:normal;font-stretch:normal;font-size:42.66666794px;font-family:sans-serif;-inkscape-font-specification:sans-serif"
       id="path3747" /><path
       d="m 189.0926,69.169078 q -1.95833,0.9375 -3.72917,1.458333 -1.75,0.520833 -3.72916,0.520833 -2.52084,0 -4.62501,-0.729166 -2.10416,-0.75 -3.60416,-2.250001 -1.52084,-1.5 -2.35417,-3.791666 -0.83333,-2.291667 -0.83333,-5.354167 0,-5.708334 3.125,-8.958334 3.14583,-3.25 8.29167,-3.25 2,0 3.91666,0.5625 1.9375,0.5625 3.54167,1.375 v 4.354167 h -0.20833 q -1.79167,-1.395833 -3.70834,-2.145833 -1.89583,-0.75 -3.70833,-0.75 -3.33334,0 -5.27084,2.25 -1.91666,2.229166 -1.91666,6.5625 0,4.208333 1.875,6.479167 1.89583,2.25 5.3125,2.25 1.1875,0 2.41667,-0.3125 1.22916,-0.3125 2.20833,-0.8125 0.85417,-0.4375 1.60417,-0.916667 0.75,-0.5 1.1875,-0.854167 h 0.20833 z"
       style="font-style:normal;font-variant:normal;font-weight:normal;font-stretch:normal;font-size:42.66666794px;font-family:sans-serif;-inkscape-font-specification:sans-serif"
       id="path3749" /><path
       d="m 213.9676,59.002411 q 0,5.6875 -2.91667,8.979166 -2.91666,3.291667 -7.8125,3.291667 -4.9375,0 -7.85417,-3.291667 -2.89583,-3.291666 -2.89583,-8.979166 0,-5.687501 2.89583,-8.979167 2.91667,-3.3125 7.85417,-3.3125 4.89584,0 7.8125,3.3125 2.91667,3.291666 2.91667,8.979167 z m -4.04167,0 q 0,-4.520834 -1.77083,-6.708334 -1.77083,-2.208333 -4.91667,-2.208333 -3.1875,0 -4.95833,2.208333 -1.75,2.1875 -1.75,6.708334 0,4.375 1.77083,6.645833 1.77083,2.25 4.9375,2.25 3.125,0 4.89584,-2.229167 1.79166,-2.25 1.79166,-6.666666 z"
       style="font-style:normal;font-variant:normal;font-weight:normal;font-stretch:normal;font-size:42.66666794px;font-family:sans-serif;-inkscape-font-specification:sans-serif"
       id="path3751" /><path
       d="M 239.50927,70.627411 H 235.5926 V 57.37741 q 0,-1.604166 -0.1875,-3 -0.1875,-1.416666 -0.6875,-2.208333 -0.52083,-0.875 -1.5,-1.291667 -0.97916,-0.4375 -2.54166,-0.4375 -1.60417,0 -3.35417,0.791667 -1.75,0.791667 -3.35417,2.020833 v 17.375001 h -3.91666 V 47.356577 h 3.91666 v 2.583333 q 1.83334,-1.520833 3.79167,-2.375 1.95833,-0.854166 4.02083,-0.854166 3.77084,0 5.75,2.270833 1.97917,2.270833 1.97917,6.541667 z"
       style="font-style:normal;font-variant:normal;font-weight:normal;font-stretch:normal;font-size:42.66666794px;font-family:sans-serif;-inkscape-font-specification:sans-serif"
       id="path3753" /></g></svg>